<svg xmlns:xlink="http://www.w3.org/1999/xlink" xmlns="http://www.w3.org/2000/svg" viewBox="0 0 370.0851063829787 55.02826543014252" preserveAspectRatio="xMidYMid meet" class="css-18yrpox" id="cfdfaeed" width="370.0851063829787"  height="55.02826543014252" ><defs id="SvgjsDefs3312"><linearGradient id="SvgjsLinearGradient3317"><stop id="SvgjsStop3318" stop-color="#2d388a" offset="0"></stop><stop id="SvgjsStop3319" stop-color="#00aeef" offset="1"></stop></linearGradient><linearGradient id="SvgjsLinearGradient3317"><stop id="SvgjsStop3318" stop-color="#2d388a" offset="0"></stop><stop id="SvgjsStop3319" stop-color="#00aeef" offset="1"></stop></linearGradient><linearGradient id="SvgjsLinearGradient3317"><stop id="SvgjsStop3318" stop-color="#2d388a" offset="0"></stop><stop id="SvgjsStop3319" stop-color="#00aeef" offset="1"></stop></linearGradient></defs><g id="SvgjsG3313" featurekey="symbolFeature-0" transform="matrix(1.027816201466471,0,0,1.027816201466471,-10.433362284610991,-23.647618485544477)" fill="#090C71"><g xmlns="http://www.w3.org/2000/svg" fill="#090C71"><polygon points="50.621,36.095 69.579,48.937 69.579,45.579 50.621,32.737  " fill="#090C71"></polygon><polygon points="30.255,54.951 33.099,57.073 33.099,47.088 46.369,38.1 46.369,65.574 45.678,65.574 42.66,65.574 27.906,54.563    19.135,61.11 19.135,58.652 16.054,58.652 16.054,63.41 13.153,65.574 10.151,65.574 10.151,67.263 12.415,67.263 14.134,67.263    15.646,67.263 27.906,58.112 40.168,67.263 41.486,67.263 43.399,67.263 45.678,67.263 47.266,67.263 49.213,67.263 49.213,66.67    49.213,65.574 49.213,32.737 30.255,45.579  " fill="#090C71"></polygon><polygon points="86.847,65.574 72.094,54.563 70.719,55.589 70.719,59.139 72.094,58.112 84.354,67.263 85.866,67.263    87.585,67.263 89.849,67.263 89.849,65.574  " fill="#090C71"></polygon><polygon points="50.621,67.263 51.207,67.263 53.465,67.263 62.108,67.263 62.108,64.419 53.465,64.419 53.465,44.616    66.735,53.605 66.735,67.263 69.579,67.263 69.579,52.097 50.621,39.254  " fill="#090C71"></polygon><rect x="25.154" y="61.761" width="2.306" height="2.304" fill="#090C71"></rect><rect x="28.354" y="61.761" width="2.305" height="2.304" fill="#090C71"></rect><rect x="25.154" y="64.959" width="2.306" height="2.304" fill="#090C71"></rect><rect x="28.354" y="64.959" width="2.305" height="2.304" fill="#090C71"></rect><rect x="70.756" y="61.176" width="1.284" height="1.284" fill="#090C71"></rect><rect x="72.539" y="61.176" width="1.284" height="1.284" fill="#090C71"></rect><rect x="70.756" y="62.959" width="1.284" height="1.283" fill="#090C71"></rect><rect x="72.539" y="62.959" width="1.284" height="1.283" fill="#090C71"></rect><path d="M88.159,60.913h0.344C85.24,48.022,73.024,37.917,57.575,35.388l6.726,4.557C76.16,43.662,85.201,51.739,88.159,60.913z" fill="#090C71"></path><path d="M34.931,40.346l7.261-4.918c-15.338,2.593-27.447,12.66-30.694,25.485h0.662C15.338,52.161,23.847,44.254,34.931,40.346z" fill="#090C71"></path></g></g><g id="SvgjsG3314" featurekey="nameFeature-0" transform="matrix(1.3634356937058327,0,0,1.3634356937058327,99.21859058671424,-14.343345422190293)" fill="url(&quot;#SvgjsLinearGradient3317&quot;)"><path d="M17.04 40.6 c-5.32 0 -8.12 -1.44 -10.64 -3.68 c-2.96 -2.64 -4.36 -7.24 -4.36 -10.68 c0 -4.12 1.32 -7.84 4.12 -10.84 c2.28 -2.44 5.6 -4.32 10.56 -4.32 c3.64 0 6.64 0.92 8.04 1.68 c0.56 0.28 0.76 0.24 0.84 -0.04 l0.32 -1 c0.08 -0.24 0.16 -0.24 0.76 -0.24 s0.68 0.08 0.68 0.64 c0 0.76 0.72 7.56 0.92 8.76 c0.04 0.28 0 0.48 -0.2 0.52 l-0.88 0.24 c-0.2 0.08 -0.36 -0.08 -0.48 -0.44 c-0.44 -1.6 -1.52 -3.64 -3.2 -5.36 c-1.72 -1.68 -3.84 -3 -6.88 -3 c-5.84 0 -8.32 5.32 -8.28 11.24 c0 2.52 0.72 7.44 3.56 10.44 c2.6 2.68 4.88 3 6.24 3 c4.56 0 7.96 -2.08 9.44 -4.28 c0.2 -0.32 0.4 -0.48 0.6 -0.32 l0.68 0.6 c0.12 0.08 0.16 0.24 0 0.48 c-2.32 3.36 -6.2 6.6 -11.84 6.6 z M40.36 40.56 c-2.92 0 -4.92 -0.6 -6.96 -2.92 c-1.52 -1.68 -2.12 -3.8 -2.12 -6.32 c0 -1.8 1 -4.76 3.44 -6.64 c2.04 -1.6 4.08 -2.04 5.96 -2.04 c2.76 0 4.64 0.84 6.44 2.52 c1.96 1.76 2.76 3.92 2.76 6.36 c0 2.32 -1 4.56 -2.56 6.24 c-1.92 2 -4.24 2.8 -6.96 2.8 z M40.6 38.88 c2.2 0 3.2 -3.24 3.2 -7.64 c0 -4.64 -1.6 -6.92 -3.36 -6.92 c-1 0 -1.64 0.28 -2.16 1.08 c-0.8 1.24 -1.32 2.96 -1.32 6.2 c0 2.32 0.2 3.84 1 5.56 c0.52 1.08 1.16 1.72 2.64 1.72 z M52.199999999999996 25.2 l5.16 -2.28 c0.36 -0.16 0.64 -0.28 0.92 -0.28 c0.24 0 0.48 0.12 0.56 0.52 l0.32 2.28 l0.2 0 c1.12 -1.56 3.16 -2.8 5.68 -2.8 c2.56 0 3.8 1.16 4.84 2.8 l0.2 0 c1.36 -1.6 3.32 -2.68 5.36 -2.68 c1.8 0 2.64 0.24 3.88 1.52 c1.16 1.16 1.72 1.52 1.72 5.48 l0 2.88 c0 1.36 -0.12 3.56 -0.16 4.4 c-0.04 1.12 0.52 1.56 1.16 1.56 l0.8 0 c0.36 0 0.44 0.08 0.44 0.36 l0 0.76 c0 0.28 -0.08 0.4 -0.28 0.4 c-0.28 0 -1.4 -0.12 -4.32 -0.12 c-2.4 0 -3.84 0.12 -4.12 0.12 c-0.24 0 -0.32 -0.12 -0.32 -0.48 l0 -0.68 c0 -0.28 0.12 -0.36 0.24 -0.36 l0.36 0 c0.28 0 0.76 -0.2 0.8 -0.76 c0.08 -0.92 0.2 -2.36 0.2 -3.84 l0 -3.84 c0 -2.48 -0.12 -3.32 -0.64 -3.88 c-0.64 -0.72 -1.04 -0.96 -1.96 -0.96 c-1.12 0 -1.92 0.84 -2.4 1.28 c-0.6 0.68 -0.6 1.96 -0.6 2.52 l0 7.92 c0 1.16 0.24 1.56 0.68 1.56 l0.72 0 c0.36 0 0.44 0.08 0.44 0.36 l0 0.72 c0 0.32 -0.08 0.44 -0.28 0.44 c-0.28 0 -1.32 -0.12 -3.76 -0.12 c-2.96 0 -4.32 0.12 -4.56 0.12 c-0.2 0 -0.28 -0.12 -0.28 -0.4 l0 -0.72 c0 -0.32 0.04 -0.4 0.4 -0.4 l0.56 0 c0.56 0 0.96 -0.52 0.96 -2.84 l0 -5.92 c0 -2.76 -0.4 -3.68 -0.88 -4.12 c-0.36 -0.36 -1 -0.48 -1.88 -0.48 c-0.8 0 -1.72 0.56 -2.2 1.24 c-0.52 0.8 -0.68 1.72 -0.64 3.24 l0 6.44 c0 2.04 0.4 2.44 0.84 2.44 l0.36 0 c0.36 0 0.4 0.08 0.4 0.36 l0 0.72 c0 0.28 -0.04 0.44 -0.32 0.44 c-0.36 0 -1.44 -0.12 -4.28 -0.12 c-2.68 0 -3.96 0.12 -4.28 0.12 c-0.24 0 -0.32 -0.08 -0.32 -0.36 l0 -0.8 c0 -0.32 0.04 -0.36 0.48 -0.36 l1.12 0 c0.4 0 0.72 -0.44 0.76 -1 c0.04 -0.68 0.04 -1.68 0.04 -2.72 l0 -5.04 c0 -1.76 -0.28 -2.4 -1.28 -3 l-0.8 -0.48 c-0.2 -0.12 -0.28 -0.2 -0.28 -0.32 l0 -0.48 c0 -0.12 0.08 -0.28 0.24 -0.36 z M97.03999999999999 25.32 l-4.2 0 l0 3.48 c0 1.92 -0.12 7 -0.04 8.56 c0.04 0.88 0.52 1.24 1.16 1.24 l1.44 0 c0.36 0 0.44 0.08 0.44 0.32 l0 0.8 c0 0.24 -0.08 0.4 -0.28 0.4 c-0.24 0 -1.72 -0.12 -5.6 -0.12 c-2.6 0 -4.64 0.12 -4.96 0.12 c-0.24 0 -0.32 -0.08 -0.32 -0.36 l0 -0.88 c0 -0.2 0.08 -0.28 0.4 -0.28 l1.32 0 c0.76 0 1.08 -0.48 1.08 -1.32 l-0.12 -11.96 l-2.56 0 c-0.2 0 -0.28 -0.08 -0.24 -0.44 l0.2 -1.4 c0.04 -0.24 0.16 -0.28 0.48 -0.28 l2.12 0 l0 -1.2 c0 -4.2 1.32 -6.8 3.36 -8.72 c2.16 -2 4.28 -2.76 6.76 -2.76 c2.36 0 4.12 0.96 4.12 2.8 c0 1.24 -1.28 2 -2.2 2 c-1.28 0 -2.08 -0.48 -2.68 -1.52 c-0.48 -0.8 -1.04 -1.2 -1.44 -1.2 c-0.8 0 -1.36 0.24 -2 1.28 c-0.72 1.12 -0.44 3.96 -0.44 7.64 l0 1.68 l4.64 0 c0.28 0 0.32 0.24 0.28 0.4 l-0.2 1.52 c-0.04 0.16 -0.2 0.2 -0.52 0.2 z M98.80000000000001 50.88 c-1.4 0 -2.48 -0.84 -2.48 -2.32 c0 -1.32 0.96 -2.28 1.96 -2.28 c0.56 0 1.12 0.12 1.68 0.44 c0.48 0.32 0.96 0.36 1.28 0.16 c0.4 -0.28 2.48 -4.64 2.96 -6.04 c-0.32 -1.4 -5.32 -13.88 -5.6 -14.52 c-0.4 -1 -0.84 -1.72 -1.4 -1.72 l-0.64 0 c-0.28 0 -0.32 -0.12 -0.32 -0.36 l0 -0.88 c0 -0.16 0.04 -0.28 0.32 -0.28 c0.36 0 1.32 0.12 4.8 0.12 c2.44 0 3.68 -0.12 4.12 -0.12 c0.32 0 0.36 0.12 0.36 0.36 l0 0.84 c0 0.2 -0.04 0.32 -0.24 0.32 l-0.56 0 c-0.44 0 -0.8 0.28 -0.72 0.92 c0.12 0.68 2.36 8.4 2.64 9.28 l0.2 0 c1 -2.28 3.16 -7.84 3.4 -8.6 c0.32 -1.08 -0.2 -1.6 -1 -1.6 l-0.64 0 c-0.24 0 -0.28 -0.12 -0.28 -0.32 l0 -0.88 c0 -0.2 0.04 -0.32 0.24 -0.32 c0.52 0 1.36 0.12 3.6 0.12 c1.68 0 2.6 -0.12 3.04 -0.12 c0.24 0 0.24 0.16 0.24 0.4 l0 0.76 c0 0.24 0 0.36 -0.2 0.36 l-0.44 0 c-0.44 0 -1 0.16 -1.48 0.8 c-0.72 0.96 -3.52 6.92 -6.56 13.48 c-2.04 4.36 -3.76 8.08 -4.52 9.36 c-0.64 1.08 -1.52 2.64 -3.76 2.64 z M119.67999999999999 25.68 l0 -3.88 c0 -2.96 0 -5.52 -0.04 -6.6 c-0.04 -1.32 -0.56 -2 -1.12 -2 l-1.6 0 c-0.2 0 -0.24 -0.12 -0.24 -0.28 l0 -1.08 c0 -0.2 0.04 -0.28 0.24 -0.28 c0.36 0 1.6 0.12 5.96 0.12 c2.24 0 5.76 -0.12 7.4 -0.12 c3.12 0 5.44 1.12 7.08 2.64 c1.44 1.32 2.28 2.88 2.28 4.36 c0 5.08 -3.8 7.36 -7.32 7.68 l0 0.28 c1.24 0.4 1.88 1.16 2.64 2.12 c0.52 0.64 2.72 4.2 3.04 4.68 c0.24 0.36 2.4 3.4 3.2 4.32 c0.48 0.52 2 0.84 2.92 0.84 c0.28 0 0.32 0.16 0.32 0.32 l0 0.96 c0 0.24 -0.04 0.36 -0.32 0.36 c-0.32 0 -1.36 -0.12 -4.44 -0.12 c-1.16 0 -2.64 0.08 -3.8 0.12 c-1.2 -0.92 -3.68 -5.56 -4.36 -6.92 c-1.36 -2.72 -3 -5.68 -4.92 -5.68 l-1.36 0 l0 2.04 c0 2.36 0.12 6.84 0.2 7.36 c0.08 0.84 0.4 1.56 1 1.56 l1.64 0 c0.28 0 0.32 0.12 0.32 0.32 l0 0.96 c0 0.28 -0.04 0.36 -0.64 0.36 c-0.04 0 -1.04 -0.12 -5.24 -0.12 c-4.24 0 -5.16 0.12 -5.6 0.12 c-0.32 0 -0.32 -0.12 -0.32 -0.4 l0 -0.92 c0 -0.2 0 -0.32 0.2 -0.32 l1.2 0 c0.88 0 1.6 -0.28 1.6 -1.28 c0.08 -3.96 0.08 -7.72 0.08 -11.52 z M125.48 14.440000000000001 l-0.2 11.68 c0.76 0.04 1.24 0.04 1.6 0.04 c5.28 0 6.52 -5.04 6.52 -6.92 c0 -1.84 -0.64 -3.6 -1.52 -4.48 c-1.44 -1.28 -3.24 -1.76 -4.44 -1.76 c-0.68 0 -1.2 0.08 -1.52 0.36 c-0.24 0.16 -0.36 0.6 -0.44 1.08 z M159.68 30.04 l-9.16 0 l0 1.08 c0 4.16 2.36 6.2 5.28 6.2 c1.96 0 3.56 -0.92 4.36 -2.2 c0.08 -0.2 0.24 -0.24 0.4 -0.12 l0.68 0.36 c0.16 0.08 0.28 0.28 -0.08 0.96 c-0.72 1.48 -3.32 4.24 -7.08 4.24 c-2.56 0 -4.68 -0.44 -6 -1.88 c-2.04 -2.2 -2.72 -3.76 -2.76 -6.88 c0 -1.12 0 -3.24 1.8 -5.88 c1.44 -2.12 3.88 -3.28 6.96 -3.28 c6.48 0 6.84 6.2 6.84 6.84 c0 0.52 -0.36 0.56 -1.24 0.56 z M150.56 28.52 l3.84 0 c0.88 0 1.28 -0.2 1.28 -0.8 c0 -1.76 -0.72 -3.48 -1.96 -3.48 c-1.88 0 -2.88 1.48 -3.16 4.28 z M170.12 23.12 l0.44 1.72 l0.32 0 c0.44 -0.52 1.16 -1.04 1.92 -1.44 c0.88 -0.48 1.76 -0.76 3.08 -0.76 c1.56 0 3.08 0.16 4.12 1.12 c1.68 1.56 1.8 2.56 1.8 4.56 l0 4.24 c0 1.36 -0.08 3.24 -0.16 4.64 c-0.04 1.2 0.6 1.4 0.96 1.4 l1.08 0 c0.36 0 0.44 0.12 0.44 0.36 l0 0.72 c0 0.28 -0.08 0.44 -0.32 0.44 c-0.28 0 -1.52 -0.12 -4.72 -0.12 c-2.64 0 -3.92 0.12 -4.2 0.12 c-0.24 0 -0.32 -0.12 -0.32 -0.44 l0 -0.72 c0 -0.28 0.12 -0.36 0.52 -0.36 l0.44 0 c0.28 0 0.64 -0.2 0.72 -0.92 c0.16 -1.04 0.24 -2.32 0.24 -4.16 l0 -4.28 c0 -1.52 -0.12 -2.56 -0.96 -3.32 c-0.72 -0.64 -1.28 -0.72 -1.96 -0.72 c-0.72 0 -1.24 0.2 -2.04 0.8 c-0.48 0.36 -0.8 1.44 -0.8 3.08 l-0.08 8.2 c0 0.72 0.28 1.32 0.64 1.32 l0.52 0 c0.32 0 0.4 0.12 0.4 0.4 l0 0.76 c0 0.24 -0.08 0.36 -0.28 0.36 c-0.28 0 -1.36 -0.12 -4 -0.12 c-2.84 0 -4.12 0.12 -4.36 0.12 c-0.2 0 -0.28 -0.12 -0.28 -0.36 l0 -0.8 c0 -0.24 0.08 -0.36 0.4 -0.36 l0.6 0 c0.44 0 1.12 -0.12 1.12 -0.8 l0 -8.88 c0 -1.2 -0.68 -1.88 -1.6 -2.32 l-0.36 -0.16 c-0.24 -0.12 -0.28 -0.28 -0.28 -0.44 l0 -0.36 c0 -0.2 0.16 -0.32 0.36 -0.4 l5.12 -2.32 c0.32 -0.12 0.6 -0.28 0.92 -0.28 c0.24 0 0.48 0.2 0.56 0.48 z M193.12 31 l0 3.16 c0 3.28 1.24 4 2.2 4 c0.84 0 1.44 -0.12 2.08 -0.48 c0.12 -0.08 0.24 -0.08 0.36 0.16 l0.28 0.6 c0.12 0.2 0 0.4 -0.16 0.52 c-0.68 0.48 -2.48 1.6 -5.6 1.6 c-2.72 0 -4.44 -1.88 -4.44 -3.72 c0 -1.4 0.08 -4.44 0.08 -5.96 l0.04 -5.28 l-2.2 0 c-0.36 0 -0.64 -0.16 -0.64 -0.56 s0.24 -0.68 0.88 -1 c1.32 -0.6 4.68 -3.6 6.16 -5.28 c0.28 -0.32 0.56 -0.4 0.76 -0.4 c0.36 0 0.52 0.28 0.52 0.6 l-0.16 4.24 l5.08 0 c0.24 0 0.36 0.2 0.28 0.36 l-0.4 1.72 c-0.04 0.16 -0.12 0.32 -0.36 0.32 l-4.68 0 c-0.08 1.64 -0.08 3.56 -0.08 5.4 z" fill="url(&quot;#SvgjsLinearGradient3317&quot;)"></path></g></svg>